<?xml version="1.0" encoding="UTF-8"?>
<!DOCTYPE svg PUBLIC "-//W3C//DTD SVG 1.1//EN" "http://www.w3.org/Graphics/SVG/1.1/DTD/svg11.dtd">
<svg version="1.1" xmlns="http://www.w3.org/2000/svg" xmlns:xlink="http://www.w3.org/1999/xlink" x="0" y="0" width="96" height="96" viewBox="0, 0, 96, 96">
  <g id="Background">
    <rect x="0" y="0" width="96" height="96" fill="#000000" fill-opacity="0"/>
  </g>
  <g id="Background"/>
  <g id="Layer_1">
    <path d="M62.932,35.783 C62.932,41.468 59.755,46.41 55.081,48.933 C52.973,50.07 50.562,50.715 48,50.715 C45.438,50.715 43.027,50.07 40.919,48.933 C36.245,46.41 33.068,41.468 33.068,35.783 C33.068,27.537 39.753,20.851 48,20.851 C56.247,20.851 62.932,27.537 62.932,35.783" fill="#545454"/>
    <path d="M80.776,61.844 C79.313,65.304 77.334,68.474 74.877,71.301 C73.658,62.704 68.41,55.403 61.108,51.37 C60.053,52.255 58.901,53.041 57.659,53.711 C54.709,55.303 51.368,56.145 48,56.145 C44.63,56.145 41.291,55.303 38.341,53.711 C37.099,53.041 35.947,52.255 34.892,51.37 C27.59,55.403 22.342,62.704 21.123,71.301 C18.666,68.474 16.687,65.304 15.224,61.844 C13.37,57.461 12.43,52.803 12.43,48 C12.43,43.197 13.37,38.538 15.224,34.155 C17.015,29.919 19.581,26.115 22.848,22.847 C26.116,19.58 29.92,17.015 34.155,15.224 C38.538,13.369 43.197,12.43 48,12.43 C52.803,12.43 57.461,13.369 61.845,15.224 C66.08,17.015 69.884,19.58 73.152,22.847 C76.419,26.115 78.984,29.919 80.776,34.155 C82.63,38.538 83.57,43.197 83.57,48 C83.57,52.803 82.63,57.461 80.776,61.844 z M85.777,32.04 C83.712,27.157 80.755,22.773 76.991,19.009 C73.227,15.244 68.843,12.287 63.96,10.223 C58.903,8.084 53.534,7 48,7 C42.466,7 37.096,8.084 32.04,10.223 C27.157,12.287 22.773,15.244 19.009,19.009 C15.244,22.773 12.288,27.157 10.223,32.04 C8.084,37.096 7,42.466 7,48 C7,53.533 8.084,58.903 10.223,63.959 C12.283,68.83 15.228,73.204 18.979,76.962 L18.993,76.975 C18.999,76.981 19.003,76.986 19.009,76.991 L19.009,76.991 L19.092,77.074 L19.093,77.075 C22.838,80.8 27.194,83.727 32.04,85.777 C37.096,87.915 42.466,89 48,89 C53.534,89 58.903,87.915 63.959,85.777 C68.775,83.74 73.106,80.837 76.836,77.146 L76.991,76.991 C76.999,76.984 77.006,76.976 77.013,76.969 L77.051,76.931 L77.052,76.931 C80.787,73.179 83.722,68.816 85.777,63.959 C87.915,58.903 89,53.533 89,48 C89,42.466 87.915,37.096 85.777,32.04" fill="#545454"/>
  </g>
</svg>
