<?xml version="1.0" encoding="UTF-8"?>
<!DOCTYPE svg PUBLIC "-//W3C//DTD SVG 1.1//EN" "http://www.w3.org/Graphics/SVG/1.1/DTD/svg11.dtd">
<svg version="1.1" xmlns="http://www.w3.org/2000/svg" xmlns:xlink="http://www.w3.org/1999/xlink" x="0" y="0" width="103" height="103" viewBox="0, 0, 103, 103">
  <g id="Layer_2" transform="translate(0, 0)">
    <path d="M103,51.5 C103,79.897 79.897,103 51.5,103 C23.103,103 0,79.897 0,51.5 C0,23.102 23.103,-0 51.5,-0 C79.897,-0 103,23.102 103,51.5" fill="#307BF6"/>
    <g id="dots">
      <path d="M51.5,60.5 C46.529,60.5 42.5,56.471 42.5,51.5 C42.5,46.529 46.529,42.5 51.5,42.5 C56.471,42.5 60.5,46.529 60.5,51.5 C60.5,56.471 56.471,60.5 51.5,60.5 z" fill="#FFFFFF"/>
      <path d="M22,60.5 C17.029,60.5 13,56.471 13,51.5 C13,46.529 17.029,42.5 22,42.5 C26.971,42.5 31,46.529 31,51.5 C31,56.471 26.971,60.5 22,60.5 z" fill="#FFFFFF"/>
      <path d="M81,60.5 C76.029,60.5 72,56.471 72,51.5 C72,46.529 76.029,42.5 81,42.5 C85.971,42.5 90,46.529 90,51.5 C90,56.471 85.971,60.5 81,60.5 z" fill="#FFFFFF"/>
    </g>
  </g>
</svg>
