<?xml version="1.0" encoding="UTF-8"?>
<!DOCTYPE svg PUBLIC "-//W3C//DTD SVG 1.1//EN" "http://www.w3.org/Graphics/SVG/1.1/DTD/svg11.dtd">
<svg version="1.1" xmlns="http://www.w3.org/2000/svg" xmlns:xlink="http://www.w3.org/1999/xlink" x="0" y="0" width="103" height="103" viewBox="0, 0, 103, 103">
  <g id="Layer_2" transform="translate(0, 0)">
    <path d="M103,51.5 C103,79.897 79.897,103 51.5,103 C23.103,103 0,79.897 0,51.5 C0,23.102 23.103,-0 51.5,-0 C79.897,-0 103,23.102 103,51.5" fill="#307BF6"/>
    <path d="M72.712,49.029 C73.555,49.501 74.097,50.426 74.116,51.438 C74.116,51.444 74.115,51.45 74.115,51.457 C74.116,51.47 74.119,51.482 74.119,51.494 C74.119,52.516 73.581,53.461 72.713,53.963 L42.954,71.136 C42.546,71.373 42.081,71.5 41.614,71.5 C41.109,71.5 40.618,71.354 40.191,71.075 C39.378,70.576 38.88,69.668 38.88,68.659 L38.88,34.321 C38.88,33.322 39.395,32.394 40.225,31.896 C40.628,31.641 41.114,31.5 41.61,31.5 C42.079,31.5 42.544,31.625 42.954,31.859 L72.712,49.029" fill="#FFFFFF"/>
  </g>
</svg>
