<?xml version="1.0" encoding="UTF-8"?>
<!DOCTYPE svg PUBLIC "-//W3C//DTD SVG 1.1//EN" "http://www.w3.org/Graphics/SVG/1.1/DTD/svg11.dtd">
<svg version="1.1" xmlns="http://www.w3.org/2000/svg" xmlns:xlink="http://www.w3.org/1999/xlink" x="0" y="0" width="103" height="103" viewBox="0, 0, 103, 103">
  <g id="Background">
    <rect x="0" y="0" width="103" height="103" fill="#000000" fill-opacity="0"/>
  </g>
  <g id="Layer_1">
    <path d="M70.028,34.318 L66.449,34.318 C64.473,34.318 62.868,35.925 62.868,37.899 L62.868,49.407 C62.783,49.344 62.707,49.268 62.613,49.215 L35.087,33.332 C34.706,33.115 34.276,33 33.843,33 C33.384,33 32.934,33.13 32.562,33.365 C31.794,33.826 31.317,34.685 31.317,35.609 L31.317,67.373 C31.317,68.307 31.778,69.146 32.53,69.607 C32.925,69.864 33.38,70 33.846,70 C34.279,70 34.708,69.883 35.087,69.664 L62.613,53.778 C62.708,53.724 62.783,53.646 62.868,53.581 L62.868,65.099 C62.868,67.074 64.473,68.682 66.45,68.682 L70.03,68.682 C72.004,68.682 73.612,67.074 73.612,65.099 L73.612,51.9 C73.612,51.897 73.612,51.895 73.612,51.895 L73.612,37.899 C73.612,35.925 72.004,34.318 70.028,34.318 z" fill="#3A3A39"/>
  </g>
</svg>
