<?xml version="1.0" encoding="UTF-8"?>
<!DOCTYPE svg PUBLIC "-//W3C//DTD SVG 1.1//EN" "http://www.w3.org/Graphics/SVG/1.1/DTD/svg11.dtd">
<svg version="1.1" xmlns="http://www.w3.org/2000/svg" xmlns:xlink="http://www.w3.org/1999/xlink" x="0" y="0" width="103" height="103" viewBox="0, 0, 103, 103">
  <g id="Background">
    <rect x="0" y="0" width="103" height="103" fill="#000000" fill-opacity="0"/>
  </g>
  <g id="Layer_1">
    <path d="M43.268,34 L39.414,34 C37.288,34 35.559,35.729 35.559,37.855 L35.559,51.922 C35.559,51.922 35.559,51.923 35.559,51.924 L35.559,65.143 C35.559,67.269 37.288,68.999 39.415,68.999 L43.27,68.999 C45.394,68.999 47.125,67.269 47.125,65.143 L47.125,37.855 C47.125,35.729 45.394,34 43.268,34 z M63.582,34 L59.729,34 C57.603,34 55.871,35.729 55.871,37.856 L55.871,65.145 C55.871,67.271 57.603,69 59.729,69 L63.582,69 C65.71,69 67.44,67.271 67.44,65.145 L67.44,37.856 C67.44,35.729 65.71,34 63.582,34 z M51.5,0 C23.103,0 -0.001,23.102 -0.001,51.5 C-0.001,79.897 23.103,103 51.5,103 C79.898,103 103,79.897 103,51.5 C103,23.102 79.898,0 51.5,0 z M51.5,96 C26.962,96 6.999,76.037 6.999,51.5 C6.999,26.963 26.962,7 51.5,7 C76.037,7 96,26.963 96,51.5 C96,76.037 76.037,96 51.5,96" fill="#3A3A39"/>
  </g>
</svg>
