<?xml version="1.0" encoding="UTF-8"?>
<!DOCTYPE svg PUBLIC "-//W3C//DTD SVG 1.1//EN" "http://www.w3.org/Graphics/SVG/1.1/DTD/svg11.dtd">
<svg version="1.1" xmlns="http://www.w3.org/2000/svg" xmlns:xlink="http://www.w3.org/1999/xlink" x="0" y="0" width="103" height="103" viewBox="0, 0, 103, 103">
  <g id="Background">
    <rect x="0" y="0" width="103" height="103" fill="#000000" fill-opacity="0"/>
  </g>
  <g id="Layer_1">
    <path d="M74.116,51.438 C74.097,50.426 73.555,49.501 72.712,49.029 L42.954,31.859 C42.544,31.625 42.079,31.5 41.61,31.5 C41.114,31.5 40.628,31.641 40.225,31.896 C39.395,32.394 38.88,33.322 38.88,34.321 L38.88,68.659 C38.88,69.668 39.378,70.576 40.191,71.075 C40.618,71.354 41.109,71.5 41.614,71.5 C42.081,71.5 42.546,71.373 42.954,71.136 L72.713,53.963 C73.581,53.461 74.119,52.516 74.119,51.494 C74.119,51.482 74.116,51.47 74.115,51.457 C74.115,51.45 74.116,51.444 74.116,51.438 z M51.5,0 C23.103,0 0,23.102 0,51.5 C0,79.897 23.103,103 51.5,103 C79.897,103 103,79.897 103,51.5 C103,23.102 79.897,0 51.5,0 z M51.5,96 C26.963,96 7,76.037 7,51.5 C7,26.963 26.963,7 51.5,7 C76.038,7 96,26.963 96,51.5 C96,76.037 76.038,96 51.5,96" fill="#3A3A39"/>
  </g>
</svg>
