<?xml version="1.0" encoding="UTF-8"?>
<!DOCTYPE svg PUBLIC "-//W3C//DTD SVG 1.1//EN" "http://www.w3.org/Graphics/SVG/1.1/DTD/svg11.dtd">
<svg version="1.1" xmlns="http://www.w3.org/2000/svg" xmlns:xlink="http://www.w3.org/1999/xlink" x="0" y="0" width="103" height="103" viewBox="0, 0, 103, 103">
  <g id="Background">
    <rect x="0" y="0" width="103" height="103" fill="#000000" fill-opacity="0"/>
  </g>
  <g id="Layer_1">
    <path d="M70.437,33.365 C70.066,33.13 69.616,33 69.157,33 C68.724,33 68.295,33.115 67.914,33.332 L40.387,49.215 C40.294,49.268 40.218,49.343 40.133,49.407 L40.133,37.899 C40.133,35.925 38.526,34.318 36.551,34.318 L32.972,34.318 C30.996,34.318 29.389,35.925 29.389,37.899 L29.389,51.895 C29.389,51.895 29.389,51.897 29.389,51.9 L29.389,65.099 C29.389,67.074 30.996,68.682 32.971,68.682 L36.551,68.682 C38.526,68.682 40.133,67.074 40.133,65.099 L40.133,53.582 C40.219,53.646 40.293,53.724 40.387,53.778 L67.914,69.664 C68.292,69.883 68.721,70 69.154,70 C69.621,70 70.075,69.864 70.471,69.607 C71.222,69.146 71.683,68.307 71.683,67.373 L71.683,35.609 C71.683,34.685 71.207,33.826 70.437,33.365" fill="#C8C8C8"/>
  </g>
</svg>
